<svg width="32" height="32" viewBox="0 0 32 32" fill="none" xmlns="http://www.w3.org/2000/svg">
<path d="M19.5433 21.3333L21.3033 23.68C19.97 26.24 17.29 28 14.21 28C9.79663 28 6.20996 24.4133 6.20996 20C6.20996 16.76 8.15663 14 10.9433 12.7333L11.2233 15.6266C9.82329 16.5866 8.87663 18.1733 8.87663 20C8.87663 22.9466 11.2633 25.3333 14.21 25.3333C16.69 25.3333 18.7566 23.6266 19.3566 21.3333H19.5433ZM26.0821 21.6986L25.2766 22.3066L21.5433 17.3333H15.4233L15.1566 14.6666H19.5433V12H14.8766L14.4766 7.99996C15.8233 7.83996 16.8766 6.71996 16.8766 5.33329C16.8766 4.62605 16.5957 3.94777 16.0956 3.44767C15.5955 2.94758 14.9172 2.66663 14.21 2.66663C13.5027 2.66663 12.8244 2.94758 12.3243 3.44767C11.8242 3.94777 11.5433 4.62605 11.5433 5.33329V5.46663L13.01 20H20.21L24.4766 25.6933L26.0821 24.4383V21.6986Z" fill="#EA580C"/>
</svg>
