<svg width="243" height="88" viewBox="0 0 243 88" fill="none" xmlns="http://www.w3.org/2000/svg">
<path d="M242.572 45.0005C240.944 50.4975 239.245 55.651 237.473 60.4608C235.7 65.2707 233.766 69.9359 231.668 74.4564C230.909 76.0838 230.149 77.4581 229.39 78.5792C228.63 79.7364 227.799 80.6767 226.894 81.4C225.99 82.1595 224.96 82.7019 223.802 83.0274C222.681 83.389 221.361 83.5699 219.842 83.5699C218.577 83.5699 217.401 83.4433 216.316 83.1901C215.268 82.9731 214.4 82.72 213.713 82.4307L215.123 75.9753C215.955 76.2647 216.696 76.4636 217.347 76.5721C217.998 76.6805 218.685 76.7348 219.408 76.7348C220.855 76.7348 221.958 76.337 222.717 75.5414C223.513 74.7819 224.182 73.7151 224.725 72.3408C222.88 68.7244 221.036 64.674 219.191 60.1896C217.347 55.669 215.611 50.606 213.984 45.0005H222.555C222.916 46.411 223.332 47.9479 223.802 49.6115C224.309 51.2389 224.833 52.9025 225.376 54.6022C225.918 56.2658 226.46 57.8931 227.003 59.4844C227.582 61.0756 228.124 62.5222 228.63 63.8241C229.1 62.5222 229.589 61.0756 230.095 59.4844C230.601 57.8931 231.09 56.2658 231.56 54.6022C232.066 52.9025 232.536 51.2389 232.97 49.6115C233.44 47.9479 233.856 46.411 234.218 45.0005H242.572Z" fill="white"/>
<path d="M192.334 37.8942L200.417 36.5923V45.0005H210.127V51.7271H200.417V61.7627C200.417 63.4625 200.706 64.8186 201.285 65.8312C201.899 66.8438 203.111 67.3501 204.919 67.3501C205.787 67.3501 206.673 67.2778 207.577 67.1331C208.517 66.9523 209.367 66.7173 210.127 66.4279L211.266 72.7205C210.289 73.1184 209.205 73.4619 208.011 73.7512C206.818 74.0405 205.353 74.1852 203.617 74.1852C201.411 74.1852 199.585 73.8959 198.138 73.3173C196.692 72.7025 195.534 71.8707 194.666 70.8219C193.799 69.737 193.184 68.4351 192.822 66.9162C192.497 65.3973 192.334 63.7156 192.334 61.8712V37.8942Z" fill="white"/>
<path d="M185.007 73.5342H176.924V45.0005H185.007V73.5342ZM185.767 36.7551C185.767 38.2378 185.278 39.4131 184.302 40.2811C183.362 41.1129 182.241 41.5288 180.939 41.5288C179.637 41.5288 178.498 41.1129 177.521 40.2811C176.581 39.4131 176.111 38.2378 176.111 36.7551C176.111 35.2723 176.581 34.1151 177.521 33.2833C178.498 32.4153 179.637 31.9814 180.939 31.9814C182.241 31.9814 183.362 32.4153 184.302 33.2833C185.278 34.1151 185.767 35.2723 185.767 36.7551Z" fill="white"/>
<path d="M164.388 58.6666L169.228 65.12C165.562 72.16 158.192 77 149.722 77C137.585 77 127.722 67.1366 127.722 55C127.722 46.09 133.075 38.5 140.738 35.0166L141.508 42.9733C137.658 45.6133 135.055 49.9766 135.055 55C135.055 63.1033 141.618 69.6666 149.722 69.6666C156.542 69.6666 162.225 64.9733 163.875 58.6666H164.388ZM182.37 59.6712L180.155 61.3433L169.888 47.6666H153.058L152.325 40.3333H164.388V33H151.555L150.455 22C154.158 21.56 157.055 18.48 157.055 14.6666C157.055 12.7217 156.282 10.8565 154.907 9.48119C153.532 8.10593 151.667 7.33331 149.722 7.33331C147.777 7.33331 145.912 8.10593 144.536 9.48119C143.161 10.8565 142.388 12.7217 142.388 14.6666V15.0333L146.422 55H166.222L177.955 70.6567L182.37 67.2055V59.6712Z" fill="white"/>
<path d="M117.21 72.5578C115.835 72.9556 114.063 73.3173 111.893 73.6427C109.723 74.0044 107.445 74.1852 105.058 74.1852C102.635 74.1852 100.61 73.8597 98.9827 73.2088C97.3914 72.5578 96.1257 71.6537 95.1854 70.4964C94.2451 69.303 93.5761 67.8926 93.1783 66.2652C92.7805 64.6378 92.5816 62.8477 92.5816 60.8948V45.0005H100.664V59.9184C100.664 62.5222 101.008 64.4027 101.695 65.56C102.382 66.7173 103.666 67.2959 105.547 67.2959C106.125 67.2959 106.74 67.2778 107.391 67.2416C108.042 67.1693 108.62 67.097 109.127 67.0247V45.0005H117.21V72.5578Z" fill="white"/>
<path d="M87.0806 74.0767C84.7299 74.0406 82.8132 73.7874 81.3305 73.3173C79.8839 72.8471 78.7266 72.1962 77.8587 71.3644C77.0269 70.4964 76.4483 69.4658 76.1228 68.2723C75.8335 67.0427 75.6888 65.6685 75.6888 64.1496V32.7408L83.7716 31.4389V62.5222C83.7716 63.2455 83.8258 63.8964 83.9343 64.4751C84.0428 65.0537 84.2417 65.5419 84.531 65.9397C84.8565 66.3375 85.3086 66.663 85.8872 66.9162C86.4658 67.1693 87.2434 67.3321 88.2198 67.4044L87.0806 74.0767Z" fill="white"/>
<path d="M47.2094 59.2674C47.2094 57.206 47.5349 55.2712 48.1858 53.463C48.8729 51.6186 49.8494 50.0274 51.1151 48.6893C52.3809 47.3151 53.9179 46.2301 55.7261 45.4345C57.5343 44.6389 59.5957 44.2411 61.9102 44.2411C63.4291 44.2411 64.8214 44.3858 66.0872 44.6751C67.353 44.9282 68.5825 45.3079 69.776 45.8142L68.0943 52.2696C67.3349 51.9803 66.5031 51.7271 65.599 51.5101C64.6949 51.2931 63.6823 51.1847 62.5612 51.1847C60.1743 51.1847 58.3842 51.926 57.1908 53.4088C56.0335 54.8915 55.4549 56.8444 55.4549 59.2674C55.4549 61.8351 55.9973 63.8241 57.0823 65.2345C58.2034 66.6449 60.1382 67.3501 62.8867 67.3501C63.8631 67.3501 64.9119 67.2597 66.0329 67.0789C67.154 66.8981 68.1847 66.6088 69.125 66.211L70.2642 72.829C69.3239 73.2268 68.1486 73.5704 66.7382 73.8597C65.3277 74.149 63.7727 74.2937 62.0729 74.2937C59.4691 74.2937 57.2269 73.914 55.3464 73.1545C53.4658 72.3589 51.9108 71.292 50.6812 69.954C49.4877 68.6159 48.6017 67.0427 48.0231 65.2345C47.4806 63.3901 47.2094 61.4011 47.2094 59.2674Z" fill="white"/>
<path d="M16.6215 45.977C17.9957 45.5792 19.7678 45.2175 21.9377 44.8921C24.1075 44.5304 26.3859 44.3496 28.7727 44.3496C31.1957 44.3496 33.2029 44.6751 34.7941 45.326C36.4215 45.9408 37.7053 46.8268 38.6456 47.9841C39.5859 49.1414 40.2549 50.5156 40.6527 52.1069C41.0505 53.6981 41.2494 55.4701 41.2494 57.423V73.5342H33.1667V58.3995C33.1667 55.7956 32.8231 53.9512 32.136 52.8663C31.4489 51.7814 30.1651 51.2389 28.2845 51.2389C27.7059 51.2389 27.0911 51.2751 26.4401 51.3474C25.7892 51.3836 25.2105 51.4378 24.7042 51.5101V73.5342H16.6215V45.977Z" fill="white"/>
<path d="M0 35.9414H8.46247V73.5342H0V35.9414Z" fill="white"/>
</svg>
